<?xml version="1.0" encoding="UTF-8" standalone="no"?>
<!-- Created with Inkscape (http://www.inkscape.org/) -->

<svg
   xmlns:dc="http://purl.org/dc/elements/1.1/"
   xmlns:cc="http://creativecommons.org/ns#"
   xmlns:rdf="http://www.w3.org/1999/02/22-rdf-syntax-ns#"
   xmlns:svg="http://www.w3.org/2000/svg"
   xmlns="http://www.w3.org/2000/svg"
   xmlns:sodipodi="http://sodipodi.sourceforge.net/DTD/sodipodi-0.dtd"
   xmlns:inkscape="http://www.inkscape.org/namespaces/inkscape"
   width="210mm"
   height="297mm"
   viewBox="0 0 210 297"
   version="1.1"
   id="svg8"
   inkscape:version="0.92.4 (5da689c313, 2019-01-14)"
   sodipodi:docname="maltese.svg">
  <defs
     id="defs2" />
  <sodipodi:namedview
     id="base"
     pagecolor="#ffffff"
     bordercolor="#666666"
     borderopacity="1.0"
     inkscape:pageopacity="0.0"
     inkscape:pageshadow="2"
     inkscape:zoom="0.35"
     inkscape:cx="400"
     inkscape:cy="560"
     inkscape:document-units="mm"
     inkscape:current-layer="layer1"
     showgrid="false"
     inkscape:window-width="1920"
     inkscape:window-height="1017"
     inkscape:window-x="1912"
     inkscape:window-y="-8"
     inkscape:window-maximized="1" />
  <metadata
     id="metadata5">
    <rdf:RDF>
      <cc:Work
         rdf:about="">
        <dc:format>image/svg+xml</dc:format>
        <dc:type
           rdf:resource="http://purl.org/dc/dcmitype/StillImage" />
        <dc:title></dc:title>
      </cc:Work>
    </rdf:RDF>
  </metadata>
  <g
     inkscape:label="Layer 1"
     inkscape:groupmode="layer"
     id="layer1">
    <circle
       id="path3713"
       cx="105.45536"
       cy="149.2113"
       r="49.514877"
       style="stroke-width:0.26458332" />
    <path
       id="path3719"
       d="m 55.835449,124.80221 c -1.896809,-1.5918 -3.866862,-3.09295 -5.763755,-4.68526 -1.662853,-1.3249 -3.210745,-2.77731 -4.808783,-4.17698 -1.504823,-1.26396 -3.09526,-2.44865 -4.527495,-3.79578 -1.041683,-0.88475 -1.971558,-1.88113 -3.000092,-2.78102 -0.863375,-0.96315 -1.810744,-1.83457 -2.768496,-2.70341 -1.353887,-0.96292 -2.386357,-2.31304 -3.466288,-3.56428 -1.02892,-1.10871 -2.054035,-2.21353 -3.096972,-3.308375 C 27.31626,98.921262 26.55712,97.7516 25.623704,96.738045 24.386243,95.879318 23.703336,94.686307 23.287143,93.272429 22.784455,92.03343 22.428615,90.890417 22.830776,89.58078 c 2.430445,-3.806505 0.405103,-0.811096 10.446248,-6.48974 0.186515,-0.105481 1.172522,-0.172937 1.355627,-0.217067 0.48242,-0.116266 0.722471,-0.302392 1.143066,-0.552077 1.143807,-0.585009 2.426203,-0.980249 3.487153,-1.707046 1.495893,-0.753933 -0.470691,0.207565 1.101317,-0.463431 0.195927,-0.08363 0.754018,-0.396502 0.569333,-0.290328 -3.030408,1.742218 -6.063937,3.479097 -9.107164,5.198825 -0.186076,0.105151 0.349681,-0.246814 0.534392,-0.354349 3.388474,-1.972685 6.789444,-3.923823 10.184167,-5.885733 1.343864,-0.486367 2.784046,-0.527354 4.196836,-0.570494 1.530599,0.06849 3.127235,0.31193 4.606632,0.739725 1.534866,0.35311 2.99295,0.931145 4.5379,1.246264 1.475997,0.254759 2.977362,0.273648 4.470853,0.291298 1.442169,-0.118226 2.724353,-0.702395 4.08769,-1.10549 7.160281,-4.178998 -12.406653,7.501853 -6.232427,3.482451 6.131936,-3.96585 20.713229,-11.99366 1.65657,-1.114814 -0.178427,0.101857 0.339452,-0.231616 0.511868,-0.343347 0.761561,-0.493517 0.212995,-0.08762 0.960443,-0.680982 0.981974,-0.946629 2.020877,-1.83247 2.99363,-2.788256 0.929095,-0.866357 1.880315,-1.695762 2.694665,-2.67431 0.711547,-1.104966 1.593011,-2.01921 2.558174,-2.894364 1.117799,-1.104205 2.301158,-2.135746 3.406651,-3.2521 1.070367,-1.153025 2.26972,-2.173856 3.400311,-3.264847 0.823778,-0.851458 1.75572,-1.552647 2.742962,-2.20158 1.463567,-1.137253 2.857376,-2.359789 4.356973,-3.456373 3.473815,-2.018387 6.943823,-4.043339 10.421443,-6.055162 0.276508,-0.159962 1.117504,-0.619469 0.840687,-0.460047 -2.949636,1.698715 -5.896459,3.402478 -8.859314,5.078032 -0.233614,0.132111 0.438058,-0.311444 0.669849,-0.446728 3.413574,-1.992342 6.877632,-3.898662 10.26492,-5.935371 2.978425,-1.79087 -6.025412,3.465144 -9.038119,5.197718 3.682754,-2.382954 3.050471,-1.988455 10.755482,-6.161847 3.088886,-1.673085 -12.144351,7.066111 -9.14731,5.233588 3.32777,-2.034744 6.74193,-3.925207 10.139865,-5.840481 0.356005,-0.200665 0.763861,-0.294802 1.127971,-0.480349 1.38253,-0.687419 2.76959,-1.182333 4.30548,-1.385749 1.75809,-0.253813 3.47722,-0.230643 5.21943,0.06556 1.55878,0.05389 2.9086,0.750861 4.33725,1.265838 1.8784,0.71928 3.73235,1.460754 5.51023,2.412595 1.4946,0.756195 3.02933,1.472303 4.3525,2.510001 1.17174,0.739384 2.2006,1.528091 3.06906,2.610742 0.70888,1.159708 1.52223,2.23244 2.37026,3.289303 1.04127,0.877032 1.67213,2.054796 2.37913,3.185363 0.93687,1.13387 1.45001,2.504758 1.9676,3.86103 0.58199,1.089113 0.98202,2.2713 1.71355,3.273918 0.67875,0.871333 1.32931,1.755563 1.92734,2.688926 0.99422,1.168302 2.29051,2.050848 3.60239,2.829745 1.51365,1.028387 3.25962,1.571932 4.94596,2.233654 1.24731,0.743104 2.62001,1.058683 4.04424,1.220539 1.62154,0.129633 3.25052,0.115152 4.87601,0.114131 1.61089,-0.0053 3.22176,-0.0122 4.83265,-0.01572 1.87663,0.0038 3.75327,0.0048 5.62991,0.0085 2.42441,0.07202 4.8269,0.01929 7.23503,-0.25399 1.87206,-0.473866 3.74893,-0.819761 5.57683,-1.435968 1.60094,-0.507118 3.29451,-0.510987 4.95688,-0.560353 1.71907,0.02841 3.49829,-0.333293 5.09374,0.424649 1.28615,0.998458 1.5274,2.5303 1.52325,4.06269 -0.2343,2.197748 -1.26644,4.130289 -2.39798,5.983221 -1.1874,1.532639 -2.06241,3.23205 -2.87887,4.978958 -0.70049,1.411153 -1.28896,2.874058 -1.93833,4.30906 -0.54492,1.309333 -0.83577,2.701579 -1.24879,4.055869 -0.54152,1.73283 -1.4813,3.32829 -2.52563,4.80286 -0.99215,1.34867 -1.94704,2.73192 -2.76287,4.19523 -0.84462,1.14273 -1.66828,2.28994 -2.46267,3.46967 -0.79486,1.2141 -1.76217,2.31637 -2.79651,3.33145 -1.11152,1.04627 -2.21959,2.10172 -3.26809,3.21188 -0.87536,0.85531 -1.61853,1.84477 -2.62262,2.55511 -3.94706,3.49995 -8.34119,5.39578 -13.15125,8.17852 16.53305,-9.97787 8.8856,-5.07891 5.18056,-2.69145 -3.7022,2.75307 -7.83511,4.59279 -11.82155,7.0698 -2.91853,1.81345 5.94623,-3.44515 8.93421,-5.14174 0.44572,-0.25307 -0.84481,0.58086 -1.25948,0.88214 -0.21533,0.14848 -0.43066,0.29696 -0.64599,0.44545 0,0 -10.45171,4.11825 -10.45171,4.11825 v 0 c 0.21281,-0.15195 0.42562,-0.3039 0.63844,-0.45584 0.43368,-0.27984 0.80913,-0.64603 1.25216,-0.91082 9.37477,-5.60312 16.96885,-9.81357 1.4228,-0.84711 -0.52776,0.30439 2.10846,-1.30045 1.48596,-1.06418 4.43632,-3.15694 9.54198,-5.3491 13.98414,-8.46376 -2.94131,1.70304 -5.88262,3.40607 -8.82392,5.1091 0.61964,-0.36872 1.30332,-0.66002 1.8581,-1.12743 0.33419,-0.28158 0.6,-0.63811 0.94073,-0.91311 1.0453,-0.91286 -0.21192,0.12256 0.93186,-0.62793 0.69694,-0.4573 1.16517,-1.25151 1.75731,-1.82213 1.13235,-1.02984 2.12096,-2.21466 3.25822,-3.24108 1.06422,-0.93608 2.01048,-1.9593 2.9021,-3.05874 0.72149,-1.22467 1.49177,-2.42099 2.46484,-3.46586 0.97358,-1.39349 1.68636,-2.97712 2.77095,-4.30795 1.08419,-1.34245 1.9671,-2.81209 2.64773,-4.39994 0.36875,-1.41226 0.83559,-2.78892 1.20138,-4.20239 0.61682,-1.46839 1.29481,-2.91079 1.92452,-4.373187 0.93334,-1.706933 1.50955,-3.62018 2.85151,-5.091046 1.13339,-1.687799 2.20851,-3.420415 2.6147,-5.443903 0.11064,-0.964528 0.16336,-2.293464 -0.82131,-2.818209 -1.56705,-0.351272 -3.21245,-0.05872 -4.80263,-0.0883 -1.62978,0.0911 -3.25488,0.241556 -4.79932,0.812061 -1.85065,0.5471 -3.76878,0.880838 -5.66609,1.215941 -2.43747,0.221236 -4.8759,0.174942 -7.3216,0.176622 -1.88637,0.0043 -3.77274,0.0053 -5.65911,0.01524 -1.60845,0.0029 -3.21692,0.0085 -4.82538,0.0037 -1.66345,-0.01072 -3.33662,0.005 -4.98653,-0.236456 -1.47271,-0.271058 -2.85977,-0.752189 -4.19343,-1.439114 -1.71598,-0.713994 -3.47521,-1.33682 -5.01078,-2.416511 -1.42421,-0.907624 -2.89895,-1.850958 -3.9254,-3.219079 -0.59508,-0.916472 -1.24295,-1.782678 -1.90164,-2.651636 -0.75392,-1.103736 -1.23065,-2.342965 -1.83312,-3.53097 -0.48546,-1.295088 -0.97468,-2.590221 -1.87249,-3.66663 -0.67464,-1.102371 -1.32782,-2.189941 -2.30587,-3.066447 -0.84944,-1.051123 -1.6389,-2.136759 -2.36384,-3.279077 -0.83075,-0.980723 -1.88529,-1.639331 -2.92689,-2.380969 -1.32334,-0.933834 -2.78027,-1.644137 -4.21944,-2.379504 -1.76794,-0.893617 -3.59828,-1.604295 -5.45691,-2.284724 -1.36175,-0.529672 -2.72539,-0.960324 -4.19592,-1.068343 -1.66751,-0.193437 -3.347442,-0.06915 -4.997526,0.232257 -1.454013,0.366649 -2.803369,0.977796 -4.150273,1.63114 -0.370575,0.165441 -1.442926,0.742199 -1.091906,0.538528 3.041398,-1.764708 12.224195,-6.954653 9.131202,-5.282031 -34.262885,18.528567 6.717353,-2.749248 -1.636636,0.891069 -23.01381,13.436896 -4.943171,2.879185 -1.242227,0.743577 0.23421,-0.135149 -0.450545,0.299609 -0.683413,0.437055 -3.43312,2.026362 -6.873277,4.040783 -10.314067,6.054092 -0.274185,0.160433 -1.104834,0.627618 -0.83072,0.467061 2.902693,-1.700196 5.811057,-3.390701 8.716584,-5.086053 -1.544624,0.990584 -3.024844,2.12122 -4.299704,3.442814 -0.960104,0.664937 -2.04048,1.174302 -2.800675,2.073648 -1.227725,0.967777 -2.303849,2.135034 -3.457713,3.188901 -1.087519,1.142074 -2.228765,2.193996 -3.363656,3.283931 -0.911047,0.90468 -1.965153,1.58527 -2.651159,2.702669 -0.706734,1.137076 -1.625891,1.997419 -2.584588,2.903553 -1.067294,0.840386 -1.983446,1.871663 -3.001684,2.770013 -2.961751,3.092815 -9.356857,5.78811 -11.546681,7.124076 -2.971753,1.813004 6.004485,-3.524213 9.018317,-5.266376 0.198811,-0.114927 -0.381344,0.255958 -0.572013,0.383937 -0.737584,0.637625 -0.343792,0.355656 -1.186016,0.849445 -3.177109,1.862704 -7.728947,5.204989 -11.921773,6.715816 -1.388573,0.473331 -2.820538,0.814842 -4.298968,0.8017 -1.543209,-0.04664 -3.093903,-0.122295 -4.602052,-0.481348 -1.52387,-0.390269 -3.006537,-0.924558 -4.545999,-1.258806 -1.454092,-0.285856 -2.932277,-0.592915 -4.420973,-0.468145 -1.351942,0.102568 -2.715385,0.256156 -3.899025,0.977497 19.293663,-11.222606 3.319365,-1.76232 -3.284788,1.801223 -1.190948,0.516895 -2.330371,1.144008 -3.535659,1.632056 -0.624866,0.207311 -1.300795,0.308498 -1.908069,0.561985 -0.188038,0.07849 -0.715091,0.390671 -0.540161,0.286179 8.93793,-5.338932 12.277905,-6.886686 8.608605,-5.166011 -0.960434,0.846934 -0.323312,1.871948 0.04762,2.903588 0.31773,1.297593 1.002905,2.188625 2.066139,3.004637 0.919959,1.012624 1.702157,2.146263 2.761411,3.028929 1.063503,1.100579 2.082985,2.234441 3.114656,3.364934 1.057582,1.218602 2.086296,2.48757 3.406712,3.434011 0.96574,0.85549 1.87906,1.75769 2.772262,2.68845 1.027697,0.9081 1.9495,1.9262 2.98837,2.82251 1.447539,1.31858 2.994954,2.5331 4.498737,3.78655 1.568506,1.4145 3.149211,2.81171 4.77574,4.15957 1.904201,1.59541 3.8496,3.14433 5.807559,4.67213 0,0 -9.527439,5.93951 -9.527439,5.93951 z"
       inkscape:connector-curvature="0"
       style="stroke-width:0.26458332" />
    <path
       id="path3721"
       d="m 61.838826,143.86186 c -2.338977,-1.57637 -4.81035,-2.92948 -7.287472,-4.27126 -1.442333,-0.73642 -2.712436,-1.7805 -4.263511,-2.28058 -1.282515,-0.56173 -2.644513,-0.82926 -3.962646,-1.28783 -1.385343,-0.29941 -2.749563,-0.59074 -4.093819,-1.05582 -1.697154,-0.49885 -3.427732,-0.81907 -5.078894,-1.46772 -1.493626,-0.56983 -3.066613,-0.84446 -4.607041,-1.25386 -1.458198,-0.45046 -2.887879,-0.89575 -4.410419,-1.10708 -1.636731,-0.40911 -3.181843,-1.03231 -4.842045,-1.35246 -1.679566,-0.29769 -3.319353,-0.73731 -5.018915,-0.93795 -1.661434,-0.37177 -3.292015,-0.85745 -4.95454,-1.22263 -1.634854,-0.28306 -3.313822,-0.51503 -4.8696056,-1.11008 -1.2947734,-0.35429 -2.4780165,-1.16043 -3.8417642,-1.17401 -3.708379,1.98908 2.9434562,-1.57661 8.9640028,-4.95936 0.149352,-0.0839 -0.384817,0.0926 -0.447983,0.25188 -0.08413,0.21209 0.0705,0.62432 0.108352,0.77636 0.316784,1.15663 0.861933,2.24038 1.409924,3.30324 0.504535,1.15044 0.730413,2.38115 1.231468,3.53528 0.658105,1.33786 0.93573,2.78844 1.102985,4.25638 0.135046,1.51728 0.13244,3.04218 0.135695,4.56411 -10e-4,1.51411 -0.0059,3.0282 -0.0083,4.5423 -0.0021,1.5119 -0.0024,3.02381 -0.0026,4.53571 -1.2e-4,1.51187 -6.1e-5,3.02374 -3.6e-5,4.53561 -0.01972,1.53232 0.05312,3.06668 -0.0607,4.59565 -0.265772,1.56835 -0.492888,3.13695 -0.602813,4.72437 -0.07404,1.75319 -0.150202,3.51136 -0.04478,5.26396 0.03097,1.85167 0.869433,3.41663 1.707172,5.00667 0.93681,1.29017 2.347284,1.95692 3.774703,2.56158 1.638995,0.58972 3.286299,1.03932 5.017013,1.26685 1.570114,0.16803 3.151208,0.16724 4.728276,0.17039 1.418518,-0.23422 2.900876,-0.86951 4.261482,-0.19345 1.100616,1.08851 0.891905,2.47838 0.389689,3.80065 -0.569836,1.28289 -1.074079,2.579 -1.49923,3.91609 -0.568063,1.50443 -1.093147,3.02387 -1.645761,4.53389 -0.548219,1.42593 -0.743678,2.93306 -0.850945,4.44583 -0.0383,1.61069 -0.410379,3.18393 -0.594992,4.78022 -0.197366,2.0123 -0.214212,4.03626 -0.227058,6.0564 -0.0047,1.66995 0.0026,3.3399 0.0065,5.00985 0.0033,1.51484 0.004,3.0297 0.0044,4.54455 -0.04934,1.48794 -0.02532,2.94662 0.357672,4.39055 0.545195,1.19896 1.548056,2.16821 2.694249,2.79859 1.246426,0.4978 2.609255,0.49569 3.931229,0.52325 0.246097,0.002 0.493681,0.0324 0.738294,0.005 0.0058,-5.3e-4 1.214966,-0.3061 1.224364,-0.31144 0.232802,-0.13233 0.837026,-0.66035 0.60207,-0.53188 -8.311888,4.54492 -11.514708,7.21075 -7.993938,4.36013 1.719326,-1.53469 3.076467,-3.40172 4.523476,-5.18034 1.28466,-1.61838 2.623595,-3.18407 4.028334,-4.69846 1.224073,-1.30952 1.904534,-2.97462 2.881505,-4.4525 0.979572,-1.62581 2.055852,-3.18483 3.192272,-4.70424 1.07524,-1.32705 2.129846,-2.68327 3.35239,-3.87913 1.287656,-1.10755 2.459707,-2.3352 3.699402,-3.49397 1.356931,-1.21658 2.645055,-2.49889 3.842234,-3.87252 0.882361,-1.20748 1.744297,-2.40466 2.869387,-3.39838 1.176269,-1.21381 2.560241,-2.17827 3.954497,-3.12041 6.256076,-3.8667 21.217178,-12.17549 2.372334,-1.45577 -0.200811,0.11423 0.497321,-0.32275 1.334391,-0.84836 0,0 10.4652,-4.08156 10.4652,-4.08156 v 0 c -6.025835,4.06369 -21.855258,12.70139 -2.896127,1.79925 0.283665,-0.16312 -0.551958,0.35163 -0.827936,0.52744 -1.41341,0.83437 -2.816313,1.76828 -3.995508,2.91222 -1.566497,1.53503 0.606806,-0.54464 -1.056798,0.88504 -0.579337,0.49787 -0.953553,1.09384 -1.394548,1.70117 -0.161292,0.22212 -0.345765,0.42645 -0.518649,0.63968 -1.009947,1.54687 -2.440019,2.77365 -3.76369,4.05336 -1.245198,1.15736 -2.424777,2.36398 -3.68971,3.49644 -1.28651,1.1166 -2.389063,2.40003 -3.439898,3.73872 -1.232887,1.4048 -2.273522,2.99618 -3.218103,4.60821 -0.313995,0.45785 -0.671648,0.88657 -0.960308,1.3608 -0.644507,1.05884 -0.978398,2.30524 -1.882587,3.20652 -1.255919,1.63562 -2.892531,2.98007 -4.04966,4.71547 -1.547614,1.72532 -2.809369,3.67902 -4.448027,5.32549 -3.831862,3.61083 -8.655468,7.45342 -14.064487,7.26405 -1.476307,-0.0865 -2.970086,-0.22382 -4.268449,-1.00206 -1.297538,-0.90273 -2.455955,-2.04537 -3.099522,-3.51171 -0.469838,-1.52856 -0.595123,-3.07091 -0.50831,-4.66687 -2.91e-4,-1.51498 -8.47e-4,-3.02996 -0.0013,-4.54494 -1.32e-4,-1.67712 -5.56e-4,-3.35426 0.01281,-5.03134 0.02001,-2.04927 0.03441,-4.10024 0.168375,-6.14595 0.145103,-1.58901 0.484558,-3.14454 0.601972,-4.72865 0.07654,-1.59997 0.210205,-3.20685 0.719233,-4.73742 0.532001,-1.51894 1.099492,-3.02353 1.619174,-4.54498 0.574102,-1.27489 0.799361,-2.70409 1.477165,-3.9465 0.219246,-0.4777 1.079785,-1.75122 0.511489,-2.16502 -1.359298,-0.0234 -2.671017,0.49561 -4.03541,0.446 -1.608401,-0.0217 -3.222312,-0.0577 -4.814095,-0.31287 -1.783613,-0.32297 -3.508677,-0.84071 -5.192447,-1.51462 -1.613852,-0.77794 -3.1554647,-1.65396 -4.1651541,-3.19472 -0.8923406,-1.71495 -1.808829,-3.42491 -1.8973736,-5.40713 -0.2035215,-1.79471 -0.1006468,-3.5996 -0.045488,-5.40242 0.078621,-1.60491 0.2107327,-3.20433 0.5581391,-4.77755 0.2543826,-1.47406 0.060818,-2.98517 0.1200809,-4.47575 -2.46e-5,-1.51191 -7.84e-5,-3.02382 -2.49e-5,-4.53573 1.172e-4,-1.51237 2.349e-4,-3.02475 0.00198,-4.53712 0.00206,-1.51336 0.00597,-3.02671 0.00958,-4.54006 8.467e-4,-1.48765 0.010094,-2.97714 -0.086327,-4.46243 -0.120106,-1.35559 -0.3214555,-2.70282 -0.9419986,-3.93355 -0.5215586,-1.12997 -0.7784185,-2.32094 -1.2075372,-3.48038 -0.5786355,-1.12903 -1.151088,-2.27915 -1.5214735,-3.49423 -0.05923,-0.18677 -0.3440168,-1.06593 -0.3728667,-1.23774 -0.6774995,-4.03453 7.1447616,-7.30985 10.8377406,-6.70768 1.348662,0.34721 2.61969,0.92523 3.94534,1.3491 1.57552,0.44281 3.185733,0.71905 4.789369,1.03588 1.63086,0.39849 3.252798,0.84639 4.908701,1.13195 1.699385,0.27202 3.360984,0.71415 5.055135,1.01493 1.622901,0.38801 3.175296,1.01523 4.824206,1.29848 1.523307,0.29298 2.974972,0.79891 4.471506,1.1946 1.561385,0.41455 3.158058,0.70765 4.654203,1.34091 1.665407,0.5486 3.382854,0.89533 5.053208,1.42766 1.371936,0.38806 2.777379,0.62345 4.133131,1.06508 1.325239,0.45101 2.707602,0.72574 3.982704,1.32421 1.512556,0.67035 2.843196,1.66753 4.300683,2.44619 2.459095,1.41696 4.918535,2.82991 7.347846,4.29755 0,0 -9.43507,6.08036 -9.43507,6.08036 z"
       inkscape:connector-curvature="0"
       style="stroke-width:0.26458332" />
    <path
       id="path3723"
       d="m 85.456555,185.06515 c -1.882653,1.57937 -3.670985,3.2679 -5.266795,5.13714 -1.11401,1.43753 -2.365301,2.74909 -3.631264,4.05025 -1.037069,1.16405 -2.210178,2.19617 -3.262548,3.34351 -1.051372,1.10748 -1.630688,2.51865 -2.385674,3.81732 -0.744852,1.13632 -1.524584,2.23135 -2.179312,3.42357 -0.71584,1.3588 -1.341149,2.76347 -2.10853,4.09451 -0.603253,1.38796 -1.442183,2.60182 -2.370834,3.78524 -0.877863,1.08412 -1.665911,2.21142 -2.333461,3.43517 -0.816141,1.46322 -1.397457,3.02926 -1.854411,4.63653 -0.405747,1.73392 -1.011746,3.40276 -1.670812,5.05324 -0.711324,1.30759 -1.556972,2.5358 -2.312308,3.81912 -0.558075,1.23169 -1.197948,2.40811 -1.943404,3.53458 -0.291354,0.0667 -0.864526,1.45611 -0.979575,1.50699 -10.586892,4.68251 -10.600494,8.00953 -10.232908,3.46105 0.426908,-1.03116 1.236083,-1.90041 2.209448,-2.45423 8.609126,-4.89836 7.002092,-4.05386 11.069285,-6.16913 1.574049,-0.44213 3.153085,-0.88955 4.753044,-1.23825 1.484538,-0.61029 3.05489,-0.88313 4.642927,-1.03407 2.088486,-0.11428 4.181332,-0.0882 6.272011,-0.0842 2.504448,0.007 5.008907,0.006 7.513357,1.1e-4 1.916359,0.0251 3.837308,-0.10587 5.741945,0.13118 2.022351,0.18825 3.932394,0.79972 5.565212,2.01099 1.193527,0.95363 2.216197,2.0904 3.348056,3.10833 0.792789,0.78674 1.52433,1.64389 2.363613,2.38203 1.003702,0.9079 2.086639,1.71352 3.164144,2.53134 1.345369,1.02116 2.792789,1.48328 4.445439,1.70773 2.36063,0.24908 4.73891,0.2452 7.1099,0.25054 2.15671,-0.11147 4.23043,-0.62757 6.32854,-1.08165 1.52173,-0.53004 3.06946,-0.88062 4.57715,-1.43498 3.61375,-1.0454 9.07934,-4.85838 -7.8436,4.69805 -0.1887,0.10656 0.37427,-0.2186 0.55952,-0.33106 0.58612,-0.3558 0.6056,-0.37728 1.18281,-0.76049 6.27495,-3.89096 20.84966,-11.87651 1.92014,-1.16364 -0.2147,0.12151 0.40753,-0.2783 0.60654,-0.4241 0.38724,-0.28371 0.76298,-0.58281 1.14633,-0.87176 0.99971,-0.79296 1.93583,-1.64753 2.79324,-2.59164 1.03659,-1.07974 1.6801,-2.42023 2.38826,-3.71643 0.68618,-1.16871 0.79465,-2.50218 0.99122,-3.80968 0.21821,-1.49128 0.95242,-2.62172 2.0991,-3.5611 4.62808,-2.74638 8.73994,-6.10345 14.0396,-6.77628 1.71018,-0.25398 3.37076,-0.0721 5.02231,0.4005 1.96143,0.57142 3.99649,0.81142 6.00342,1.17419 2.0533,0.23246 4.0501,0.7534 6.09295,1.05527 1.754,0.0524 3.217,0.76078 4.70308,1.59627 0.55356,0.22026 1.1799,0.67251 1.81843,0.53263 0.14517,-0.0318 0.51744,-0.2926 0.38727,-0.2209 -9.79151,5.39333 -12.55034,6.83392 -9.03351,4.99326 0.67463,-0.95465 0.64822,-2.21353 0.46835,-3.32211 -0.49771,-1.1298 -0.88325,-2.3019 -1.36093,-3.4403 -0.59763,-1.58005 -1.35825,-3.08072 -2.22262,-4.52928 -0.72035,-1.4068 -1.62943,-2.6965 -2.51966,-3.99628 -0.57568,-1.15021 -1.34993,-2.12695 -2.24807,-3.03521 -0.88447,-1.10304 -1.98654,-2.01037 -3.12299,-2.84077 -1.33121,-0.82034 -2.45276,-1.93274 -3.7551,-2.78971 -1.75814,-1.1264 -3.44638,-2.35978 -5.18436,-3.51667 -1.42655,-0.90801 -2.14254,-2.34715 -2.84122,-3.81889 -0.39213,-1.19936 -0.86103,-2.3762 -1.17118,-3.60165 -0.30438,-1.4153 -0.33707,-2.86763 -0.36712,-4.30919 -0.011,-1.0047 -0.007,-0.50191 -0.0119,-1.50838 0,0 10.0115,-5.10533 10.0115,-5.10533 v 0 c 0.002,0.9979 -1.4e-4,0.49997 0.006,1.4938 0.0185,1.36416 0.0287,2.73762 0.26731,4.08502 0.26096,1.16501 0.73711,2.25718 1.05991,3.40346 0.60265,1.31418 1.19404,2.54967 2.48646,3.33008 1.7206,1.19791 3.45178,2.3739 5.212,3.51311 1.27254,0.93122 2.48632,1.94249 3.79893,2.82049 1.14227,0.90885 2.27843,1.83655 3.20325,2.97552 0.9432,0.95731 1.74189,2.00593 2.34859,3.21221 0.8954,1.32282 1.80959,2.63768 2.54805,4.05805 0.88681,1.48857 1.64851,3.04189 2.28908,4.65248 0.54854,1.20277 0.94716,2.45763 1.50675,3.6563 0.28096,1.37989 0.29217,2.74597 -0.0585,4.12299 -1.69836,5.24092 -8.59736,7.87981 -12.93158,5.32239 -1.39625,-0.76702 -2.87015,-1.14707 -4.46212,-1.28934 -2.0289,-0.35704 -4.03942,-0.80942 -6.08221,-1.08671 -2.03016,-0.36371 -4.08335,-0.61796 -6.06587,-1.20939 -1.59125,-0.30312 -3.17813,-0.3429 -4.77564,-0.0252 -4.39366,0.90605 -11.30185,5.49561 5.4234,-4.04579 -1.20674,0.55405 -2.19112,1.36741 -2.45041,2.73324 -0.38369,1.3371 -0.21312,2.81143 -0.86733,4.08991 -0.68511,1.36693 -1.3696,2.7338 -2.27956,3.97108 -0.85425,0.97585 -1.66845,1.98168 -2.73579,2.7307 -3.23154,3.12503 -9.06279,5.62231 -11.91459,7.4047 -2.92193,1.82622 5.95208,-3.47337 8.93902,-5.1912 0.21805,-0.1254 -0.4209,0.27556 -0.63135,0.41334 -4.39329,2.46216 -8.35596,5.95632 -13.2566,7.36576 -1.51828,0.51282 -3.09747,0.84861 -4.63406,1.30219 -2.1217,0.46499 -4.26452,0.83998 -6.44464,0.86054 -2.414647,-0.0236 -4.84213,-0.0242 -7.235392,-0.38665 -1.763761,-0.36153 -3.348445,-1.00974 -4.77936,-2.12725 -1.11135,-0.83378 -2.205855,-1.69326 -3.245572,-2.6151 -0.803219,-0.77929 -1.573435,-1.59224 -2.355173,-2.39277 -1.054311,-1.02189 -2.066522,-2.0908 -3.236311,-2.98624 -1.565836,-1.00287 -3.375655,-1.41308 -5.219703,-1.54177 -1.891842,-0.0942 -3.78714,-0.0219 -5.68084,-0.0555 -2.496015,-0.012 -4.992081,-0.0233 -7.488123,-0.0136 -2.083189,0.0137 -4.175387,-0.004 -6.247956,0.23425 -1.558115,0.23881 -3.053561,0.68522 -4.56276,1.13092 -1.555779,0.40603 -3.154373,0.73267 -4.611193,1.4312 -3.874206,1.71223 -0.291039,0.15916 8.196522,-4.86572 0.236976,-0.1403 -0.506614,0.21838 -0.747562,0.35174 -0.640649,0.35458 -0.727594,0.47938 -1.273186,0.9433 -0.159194,0.13536 -0.31923,0.26974 -0.478845,0.40461 -3.049302,2.98055 0.0272,0.0338 -10.419469,5.61105 -0.07063,0.0377 0.17481,0.017 0.238032,-0.0321 0.426945,-0.33174 0.393298,-1.029 0.842325,-1.35294 0.945063,-0.91064 1.554128,-2.15349 2.054029,-3.3527 0.669333,-1.31279 1.459633,-2.56774 2.326937,-3.75742 0.854207,-1.49944 1.304126,-3.22458 1.802225,-4.86633 0.365472,-1.67106 0.894297,-3.33172 1.719416,-4.83615 0.591005,-1.33132 1.342393,-2.52394 2.240465,-3.66283 0.929553,-1.13361 1.954636,-2.19966 2.436918,-3.61849 0.744369,-1.33028 1.485837,-2.65123 2.132672,-4.0363 0.572944,-1.27859 1.305671,-2.42424 2.129247,-3.54534 0.914403,-1.2483 1.370603,-2.73367 2.325796,-3.96513 1.013249,-1.21056 2.161937,-2.26543 3.276357,-3.38017 1.192614,-1.36376 2.609294,-2.52474 3.643214,-4.02559 1.655096,-1.83506 3.274203,-3.69301 5.189355,-5.2773 0,0 10.405253,-4.21671 10.405253,-4.21671 z"
       inkscape:connector-curvature="0"
       style="stroke-width:0.26458332" />
    <path
       id="path3725"
       d="m 149.80124,174.83475 c 2.64613,1.0236 5.10932,2.42616 7.70538,3.55563 1.7399,0.8945 3.52363,1.70763 5.16978,2.76961 1.48213,0.92206 2.9151,1.85676 4.49966,2.59611 2.13619,0.80599 4.43086,0.94009 6.68804,1.0524 1.92015,-0.0743 3.56063,0.14153 5.31703,0.88786 1.4178,0.7623 2.80259,1.59395 4.29104,2.21301 1.27198,0.77938 2.69899,1.20977 4.10488,1.673 1.39167,0.89477 2.81469,1.69388 4.28759,2.45207 1.01345,0.56723 2.45927,1.94479 3.67389,1.74019 0.99571,-3.88357 0.0563,0.16562 -9.24676,4.94064 -0.17458,0.0896 0.0838,-0.38482 0.0974,-0.58058 0.0367,-0.53103 -0.15833,-1.07547 -0.28745,-1.58067 -0.20474,-1.25111 -0.66707,-2.42973 -0.97121,-3.65566 -0.24134,-1.19492 -0.34875,-2.41555 -0.3973,-3.63255 -0.14701,-1.41976 0.14892,-2.59592 0.9433,-3.76852 0.79283,-1.1305 1.77499,-2.10435 2.65483,-3.16157 0.77844,-1.08396 1.6588,-2.07591 2.33045,-3.23473 0.69018,-1.1314 1.19631,-2.2887 1.44482,-3.59016 0.20453,-1.4334 0.19775,-2.88568 0.20427,-4.33038 2.6e-4,-1.51259 -0.007,-3.02517 -0.01,-4.53776 -0.003,-1.51298 -0.003,-3.02596 -0.004,-4.53893 0.0365,-1.50809 -0.32333,-2.98636 -0.51615,-4.47532 0.0115,-1.28296 -0.54157,-2.3627 -1.03214,-3.50111 -0.53659,-1.12789 -1.08704,-2.25824 -1.72721,-3.33157 -0.63302,-1.37945 -1.66311,-2.24841 -3.05187,-2.79133 -1.5354,-0.44946 -3.15112,-0.42219 -4.73596,-0.43801 -1.68711,-0.13342 -2.80718,-0.69758 -3.57269,-2.22083 -0.51005,-1.40032 -0.49799,-2.90758 -0.51431,-4.37801 -0.079,-1.56684 0.0597,-3.10382 0.32381,-4.64521 0.2542,-1.28666 0.76227,-2.49371 1.29711,-3.68283 0.54823,-1.13526 1.08168,-2.27747 1.60188,-3.42752 0.68976,-1.35585 1.24344,-2.77388 1.89705,-4.14563 0.55646,-1.38995 1.28899,-2.69413 1.91024,-4.05452 0.56484,-1.33287 1.13399,-2.66516 1.67377,-4.009 0.66674,-1.41964 1.50471,-2.74374 2.06875,-4.21023 0.51883,-1.55352 1.13075,-3.07068 1.79592,-4.5665 0.42648,-1.28291 1.01229,-2.53359 1.3413,-3.84698 -7.9e-4,-0.0533 0.002,-0.21303 -0.003,-0.15995 -0.009,0.0966 0.0322,0.2035 -0.01,0.29084 -0.15737,0.32574 -0.90267,0.69489 -1.16516,0.88379 2.98697,-1.70951 5.97393,-3.41901 8.96089,-5.12852 -20.53599,11.90304 -7.73286,4.46443 -1.55897,0.94856 0.25363,-0.14443 -0.49468,0.3099 -0.74096,0.46653 -0.68966,0.43858 -1.30129,0.91084 -1.91982,1.44453 -1.26476,1.22058 -2.33154,2.62285 -3.5059,3.92647 -1.15045,1.13873 -2.13729,2.42242 -3.16296,3.67042 -1.15681,1.19703 -2.02941,2.61945 -3.12395,3.86636 -1.0567,1.29159 -2.21287,2.4683 -3.47899,3.55372 -1.06356,0.97169 -2.31762,1.67839 -3.43328,2.57972 -1.18906,1.01841 -2.35919,2.03755 -3.36978,3.23635 -0.91114,1.21091 -1.93398,2.29098 -3.07404,3.28723 -1.12356,0.88982 -2.23071,1.79067 -3.301,2.74342 -0.79869,0.89126 -1.85116,1.47796 -2.75556,2.24528 -1.01769,1.01239 -2.07918,1.97538 -3.18018,2.89573 -1.42586,1.07531 -2.80754,2.20499 -4.21189,3.30913 -1.70727,1.44914 -3.60332,2.64375 -5.44789,3.9047 -1.6552,1.1897 -3.44097,2.18171 -5.08917,3.38104 0,0 -10.45985,4.11808 -10.45985,4.11808 v 0 c 1.71752,-1.14809 3.39326,-2.35623 5.17857,-3.40878 1.78687,-1.30536 3.69229,-2.43234 5.4301,-3.8057 1.33568,-1.1637 2.74048,-2.26533 4.18508,-3.28496 1.08048,-0.92722 2.20681,-1.79224 3.18506,-2.82432 0.82805,-0.88877 1.78633,-1.52719 2.7752,-2.21651 0.96178,-1.10707 2.15242,-1.94194 3.263,-2.88791 1.21856,-0.83939 2.33002,-1.85195 3.14206,-3.09711 1.40662,-1.48171 -0.43618,0.50579 0.97664,-1.18256 0.52593,-0.6285 1.14561,-1.09399 1.75988,-1.62017 0.20457,-0.17524 0.38654,-0.37525 0.57981,-0.56288 1.07789,-1.01106 2.29342,-1.71151 3.42247,-2.64583 1.34848,-0.93653 2.56178,-2.07079 3.54424,-3.38904 1.18954,-1.17934 2.06653,-2.55621 3.1257,-3.84843 1.16273,-1.14367 2.00221,-2.56427 3.16544,-3.7163 1.28965,-1.20299 2.30693,-2.65757 3.47051,-3.97482 0.58339,-0.56955 1.16638,-1.19022 1.84269,-1.65334 6.02034,-4.12256 21.14925,-11.90012 2.30564,-1.36848 3.42546,-2.00005 6.83033,-4.03578 10.27636,-6.000164 0.51686,-0.294629 1.31202,-0.430604 1.83227,-0.05491 0.52885,0.381905 0.49968,0.554966 0.67536,1.101617 -0.0829,1.463767 -0.91304,2.723157 -1.24159,4.140187 -0.62903,1.48665 -1.32999,2.94014 -1.83029,4.47891 -0.45368,1.53373 -1.1945,2.92381 -2.02007,4.28872 -0.61448,1.32613 -1.12289,2.69525 -1.66972,4.04941 -0.65519,1.33976 -1.31936,2.67772 -1.89804,4.04775 -0.64446,1.38219 -1.26304,2.76743 -1.89713,4.1567 -0.569,1.10543 -0.92512,2.31412 -1.61907,3.34872 -0.41839,1.18566 -1.06604,2.26297 -1.41852,3.48054 -0.25747,1.48745 -0.53739,2.94403 -0.41031,4.4658 0.003,1.30921 -0.0417,2.64954 0.29595,3.92497 0.52795,1.14091 1.73346,1.14193 2.87127,1.20662 1.70062,0.0525 3.42947,0.106 5.01101,0.80965 1.47268,0.77121 2.69323,1.8364 3.43139,3.35817 0.65425,1.12221 1.22813,2.29247 1.80213,3.45746 0.51675,1.23184 1.17502,2.40553 1.16163,3.78994 0.17632,1.53539 0.56106,3.05104 0.57955,4.59628 1.7e-4,1.51237 2.7e-4,3.02474 0.003,4.53711 0.003,1.51388 0.008,3.02776 0.0125,4.54164 5.3e-4,1.49303 0.0114,2.98942 -0.12106,4.47799 -0.16746,1.39124 -0.44588,2.7549 -1.30197,3.90553 -0.53767,1.26484 -1.30814,2.37177 -2.25602,3.3658 -0.68644,1.24028 -1.84614,2.07182 -2.63783,3.24155 -0.86634,0.94526 -1.43992,1.69638 -1.24554,3.04611 0.0226,1.15042 0.0636,2.30614 0.2736,3.44029 0.27445,1.22676 0.7764,2.38287 0.96151,3.63083 1.2517,4.68522 0.90825,11.95507 -9.66408,9.09574 -1.39083,-0.47779 -2.59964,-1.32963 -3.84678,-2.09069 -1.43518,-0.7257 -2.76476,-1.62685 -4.21575,-2.30754 -1.4205,-0.50216 -2.83564,-1.00037 -4.14264,-1.76624 -1.45174,-0.68033 -2.84011,-1.48592 -4.29575,-2.15876 -1.6229,-0.60015 -3.33861,-0.56927 -5.04904,-0.63983 -2.3695,-0.17174 -4.76703,-0.40587 -6.96411,-1.38287 -1.60157,-0.77633 -3.0494,-1.78721 -4.5749,-2.69859 -1.63027,-0.97858 -3.34247,-1.81374 -5.03445,-2.67902 -2.58834,-1.20603 -5.1107,-2.54914 -7.79092,-3.55318 0,0 9.38188,-6.17294 9.38188,-6.17294 z"
       inkscape:connector-curvature="0"
       style="stroke-width:0.26458332" />
    <ellipse
       style="fill:#f2f2f2;stroke-width:0.26458332"
       id="path3731"
       cx="103.97175"
       cy="150.03056"
       rx="38.608856"
       ry="31.167862" />
  </g>
</svg>
